<?xml version="1.0" standalone="no"?>
<!DOCTYPE svg PUBLIC "-//W3C//DTD SVG 20010904//EN"
 "http://www.w3.org/TR/2001/REC-SVG-20010904/DTD/svg10.dtd">
<svg version="1.0" xmlns="http://www.w3.org/2000/svg"
 width="2000.000000pt" height="1080.000000pt" viewBox="0 0 2000.000000 1080.000000"
 preserveAspectRatio="xMidYMid meet">
<metadata>
Created by potrace 1.15, written by Peter Selinger 2001-2017
</metadata>
<g transform="translate(0.000000,1080.000000) scale(0.100000,-0.100000)"
fill="#000000" stroke="none">
<path d="M15356 10715 c-11 -8 -29 -15 -41 -15 -11 0 -28 -9 -38 -20 -9 -11
-24 -20 -32 -20 -8 0 -24 -9 -35 -20 -11 -11 -28 -20 -38 -20 -10 0 -25 -9
-35 -20 -9 -11 -26 -20 -37 -20 -11 0 -25 -9 -32 -20 -7 -11 -20 -20 -28 -20
-9 0 -31 -11 -50 -25 -19 -14 -38 -25 -43 -25 -5 0 -20 -9 -34 -20 -14 -11
-34 -20 -44 -20 -11 0 -19 -7 -19 -15 0 -8 -14 -17 -35 -21 -20 -3 -40 -15
-46 -25 -5 -11 -19 -19 -29 -19 -11 0 -28 -9 -37 -20 -10 -11 -25 -20 -34 -20
-9 0 -24 -9 -34 -20 -10 -11 -26 -20 -37 -20 -10 0 -26 -9 -35 -20 -10 -11
-32 -23 -50 -26 -18 -3 -33 -12 -33 -19 0 -8 -13 -16 -29 -20 -16 -3 -37 -15
-47 -26 -9 -10 -24 -19 -33 -19 -9 0 -24 -9 -34 -20 -9 -11 -24 -20 -33 -20
-9 0 -29 -11 -46 -25 -16 -14 -38 -25 -49 -25 -10 0 -19 -5 -19 -10 0 -6 -12
-16 -27 -22 -16 -7 -39 -20 -52 -30 -13 -10 -30 -18 -37 -18 -8 0 -23 -9 -34
-20 -11 -11 -29 -20 -40 -20 -10 0 -24 -9 -30 -19 -5 -11 -23 -22 -40 -26 -16
-4 -30 -11 -30 -16 0 -5 -15 -15 -34 -23 -18 -8 -37 -19 -40 -25 -4 -6 -15
-11 -25 -11 -10 0 -30 -11 -45 -25 -15 -14 -38 -25 -52 -25 -14 0 -24 -6 -24
-15 0 -8 -16 -19 -39 -25 -21 -5 -42 -17 -45 -25 -3 -8 -14 -15 -23 -15 -10 0
-26 -9 -36 -20 -9 -11 -24 -20 -33 -20 -9 0 -29 -11 -46 -25 -16 -14 -36 -25
-44 -25 -8 0 -23 -9 -34 -20 -11 -11 -28 -20 -38 -20 -10 0 -25 -9 -35 -20 -9
-11 -24 -20 -32 -20 -8 0 -24 -9 -35 -20 -11 -11 -29 -20 -40 -20 -11 0 -23
-6 -26 -14 -3 -8 -20 -20 -37 -27 -18 -6 -37 -17 -42 -23 -6 -6 -37 -24 -70
-41 -33 -16 -63 -35 -67 -41 -4 -7 -20 -15 -35 -19 -16 -4 -36 -15 -46 -26
-10 -10 -26 -19 -36 -19 -10 0 -26 -9 -36 -20 -10 -11 -24 -20 -30 -20 -7 0
-24 -9 -38 -20 -14 -11 -32 -20 -40 -20 -7 0 -22 -9 -31 -19 -10 -11 -29 -22
-42 -25 -13 -4 -33 -15 -44 -26 -11 -11 -28 -20 -38 -20 -10 0 -25 -9 -35 -20
-9 -11 -23 -20 -30 -20 -8 0 -22 -9 -32 -20 -10 -11 -28 -20 -41 -20 -13 0
-28 -9 -34 -20 -6 -11 -21 -20 -35 -20 -13 0 -30 -8 -37 -19 -7 -10 -24 -22
-38 -26 -14 -4 -32 -13 -40 -20 -8 -8 -26 -19 -40 -25 -45 -21 -88 -46 -105
-63 -9 -9 -27 -17 -40 -17 -13 0 -28 -7 -32 -14 -5 -8 -35 -29 -68 -46 -33
-18 -64 -37 -70 -44 -5 -7 -22 -16 -38 -20 -15 -3 -36 -15 -47 -26 -11 -11
-29 -20 -40 -20 -11 0 -23 -7 -26 -15 -3 -8 -21 -19 -39 -25 -18 -6 -39 -18
-45 -26 -7 -7 -20 -14 -29 -14 -9 0 -24 -9 -34 -20 -9 -11 -23 -20 -30 -20 -7
0 -28 -11 -47 -25 -19 -14 -42 -25 -52 -25 -10 0 -18 -5 -18 -10 0 -6 -12 -16
-27 -22 -16 -7 -39 -20 -52 -30 -13 -10 -31 -18 -40 -18 -9 0 -22 -9 -29 -20
-7 -11 -23 -20 -37 -20 -14 0 -29 -8 -35 -19 -5 -11 -23 -22 -39 -26 -16 -3
-32 -13 -35 -21 -3 -8 -12 -14 -19 -14 -8 0 -25 -8 -38 -19 -13 -10 -35 -22
-49 -26 -14 -4 -33 -16 -43 -26 -10 -11 -26 -19 -35 -19 -10 0 -25 -9 -35 -20
-9 -11 -23 -20 -30 -20 -8 0 -24 -9 -37 -20 -13 -11 -29 -20 -37 -20 -7 0 -13
-6 -13 -14 0 -8 -10 -22 -22 -31 l-23 -15 0 -2645 0 -2644 23 -21 c12 -11 22
-25 22 -30 0 -9 27 -26 86 -54 17 -8 36 -22 44 -30 7 -9 21 -16 31 -16 11 0
27 -9 36 -20 10 -11 25 -20 35 -20 9 0 29 -11 44 -25 15 -14 33 -25 41 -25 8
0 26 -9 40 -20 14 -11 32 -20 39 -20 7 0 18 -9 24 -20 6 -12 21 -20 35 -20 14
0 30 -9 37 -20 7 -11 20 -20 29 -20 9 0 28 -9 41 -20 14 -11 36 -24 49 -30 13
-6 42 -21 64 -35 22 -13 57 -31 77 -40 20 -9 39 -23 42 -31 3 -8 15 -14 26
-14 11 0 28 -9 37 -20 10 -11 25 -20 34 -20 9 0 24 -9 34 -20 10 -11 26 -20
36 -20 10 0 26 -8 36 -19 10 -10 29 -22 43 -26 14 -4 33 -16 43 -26 10 -11 26
-19 36 -19 10 0 26 -9 36 -20 10 -11 25 -20 34 -20 9 0 24 -9 34 -20 9 -11 26
-20 36 -20 11 0 26 -8 33 -19 7 -10 28 -22 46 -25 17 -4 32 -12 32 -17 0 -5
15 -16 33 -24 17 -8 50 -26 72 -39 22 -14 57 -32 77 -41 20 -9 39 -23 42 -31
3 -8 15 -14 26 -14 11 0 28 -9 37 -20 10 -11 25 -20 33 -20 9 0 26 -9 37 -20
12 -10 33 -22 48 -26 15 -4 29 -13 32 -20 3 -8 14 -14 25 -14 10 0 29 -11 42
-25 13 -14 32 -25 43 -25 11 0 28 -9 38 -20 10 -11 26 -20 35 -20 9 0 25 -9
35 -20 10 -11 26 -20 36 -20 10 0 24 -8 31 -19 7 -10 28 -22 46 -25 17 -4 32
-13 32 -21 0 -7 13 -15 29 -18 16 -3 35 -12 42 -20 14 -14 50 -35 105 -61 17
-8 36 -22 44 -30 7 -9 21 -16 31 -16 11 0 27 -9 36 -20 10 -11 25 -20 35 -20
10 0 27 -9 38 -20 11 -11 31 -22 44 -26 14 -3 27 -12 30 -20 3 -8 14 -14 25
-14 11 0 32 -11 47 -25 15 -14 35 -25 44 -25 9 0 25 -9 35 -20 10 -11 26 -20
35 -20 10 0 23 -7 30 -16 8 -8 28 -21 47 -29 18 -8 33 -18 33 -23 0 -6 15 -13
34 -16 19 -4 36 -13 39 -20 3 -7 18 -17 34 -21 15 -3 36 -15 46 -26 10 -10 24
-19 31 -19 7 0 23 -9 36 -20 13 -11 28 -20 35 -20 7 0 20 -9 30 -20 10 -11 29
-20 41 -20 13 0 29 -9 36 -20 7 -11 19 -20 27 -20 8 0 31 -10 50 -23 65 -41
76 -47 109 -62 17 -9 32 -19 32 -24 0 -5 13 -12 29 -16 16 -3 37 -15 47 -26 9
-10 25 -19 36 -19 10 0 26 -9 35 -20 10 -11 23 -20 29 -20 6 0 23 -9 37 -20
14 -11 32 -20 41 -20 8 0 23 -9 33 -19 10 -11 30 -23 46 -26 15 -4 32 -16 38
-26 5 -11 20 -19 33 -19 13 0 31 -9 41 -20 10 -11 25 -20 34 -20 9 0 22 -9 29
-20 7 -11 21 -20 32 -20 10 0 27 -8 37 -19 10 -10 33 -22 51 -26 17 -3 32 -13
32 -20 0 -7 13 -16 30 -20 16 -4 33 -11 36 -17 4 -5 22 -16 40 -24 19 -8 34
-18 34 -23 0 -5 14 -12 30 -16 17 -4 36 -15 43 -26 6 -10 22 -19 34 -19 12 0
30 -8 40 -19 10 -10 29 -22 43 -26 14 -4 30 -14 35 -22 15 -20 175 -20 190 0
5 8 21 18 35 22 14 4 33 16 43 26 10 11 26 19 37 19 10 0 25 9 33 20 8 11 28
23 45 26 18 4 32 10 32 15 0 5 15 15 34 23 18 8 37 19 40 25 4 6 15 11 25 11
10 0 26 9 35 19 10 11 30 22 44 26 15 4 35 15 45 26 10 10 27 19 37 19 11 0
25 9 32 20 7 11 21 20 31 20 9 0 25 9 34 20 10 11 25 20 35 20 9 0 25 8 35 19
10 10 29 22 43 26 14 4 33 16 43 26 10 11 26 19 36 19 10 0 26 9 36 20 10 11
24 20 32 20 8 0 23 9 35 20 12 11 31 20 42 20 12 0 27 9 33 19 7 11 25 22 42
26 16 3 32 12 34 20 3 7 19 16 36 20 17 4 31 11 31 16 0 5 15 15 33 22 17 8
38 21 46 30 7 10 22 17 32 17 11 0 28 9 39 20 11 11 28 20 38 20 10 0 25 9 35
20 9 11 23 20 30 20 8 0 24 9 37 20 13 11 28 20 35 20 7 0 23 9 36 21 13 11
36 23 51 26 16 3 28 11 28 18 0 8 15 17 32 21 18 3 39 15 46 25 7 11 20 19 28
19 9 0 27 9 41 20 14 11 31 20 38 20 6 0 20 9 30 20 10 11 26 20 36 20 10 0
26 9 36 19 10 11 30 22 45 26 15 4 29 13 32 21 3 8 11 14 19 14 7 0 28 11 47
25 19 14 41 25 50 25 8 0 21 9 28 20 7 11 23 20 37 20 14 0 28 7 31 15 3 8 22
19 42 26 21 6 41 18 45 25 4 8 14 14 21 14 7 0 24 9 37 21 13 11 36 23 51 26
16 3 28 11 28 18 0 8 15 17 32 21 18 3 39 15 46 25 7 11 21 19 31 19 10 0 26
9 36 20 10 11 26 20 35 20 10 0 23 7 30 14 6 8 27 20 45 26 18 6 36 17 38 25
3 7 19 16 35 20 17 3 38 15 48 26 9 10 25 19 34 19 9 0 25 9 35 20 10 11 24
20 32 20 7 0 22 9 33 20 11 11 29 20 40 20 10 0 24 9 30 20 6 11 20 20 30 20
11 0 29 9 39 19 10 10 30 22 43 26 12 4 34 16 47 26 13 11 32 19 42 19 11 0
19 6 19 14 0 8 14 18 32 22 18 3 39 15 46 25 7 11 22 19 33 19 10 0 27 9 36
20 10 11 25 20 34 20 9 0 26 9 39 20 13 11 29 20 36 20 7 0 21 8 31 19 10 10
29 22 43 26 14 4 33 16 43 26 10 11 28 19 41 19 13 0 26 7 29 15 4 8 22 21 40
29 19 8 38 19 41 25 4 6 16 11 26 11 11 0 24 8 29 19 6 10 26 22 46 25 19 4
35 11 35 17 0 5 15 17 33 25 59 28 94 49 111 67 10 9 27 17 39 17 12 0 28 9
35 20 7 11 23 20 37 20 14 0 29 8 35 19 5 11 23 22 40 26 16 4 32 11 36 16 3
5 21 16 40 24 19 8 34 18 34 24 0 5 15 13 32 17 18 3 39 15 46 25 7 11 24 19
36 19 13 0 26 6 29 14 3 7 26 23 51 36 l46 22 0 2718 0 2719 -22 15 c-12 9
-30 16 -40 16 -9 0 -22 9 -28 20 -6 11 -19 20 -28 20 -10 0 -27 8 -38 18 -10
10 -34 24 -51 31 -18 7 -33 17 -33 21 0 5 -13 11 -29 15 -16 3 -32 12 -34 20
-3 7 -19 16 -36 20 -17 4 -36 15 -41 26 -6 10 -21 19 -34 19 -13 0 -29 7 -36
16 -8 8 -27 22 -44 30 -72 35 -106 55 -106 63 0 5 -14 11 -32 15 -17 3 -37 15
-45 26 -8 11 -23 20 -33 20 -10 0 -25 6 -32 13 -14 15 -52 36 -108 63 -19 9
-39 22 -43 30 -4 8 -16 14 -26 14 -10 0 -30 11 -45 25 -15 14 -36 25 -46 25
-10 0 -22 5 -26 11 -3 6 -22 17 -40 25 -19 8 -34 18 -34 23 0 5 -14 12 -30 16
-17 4 -35 15 -40 26 -6 11 -21 19 -35 19 -14 0 -30 9 -37 20 -7 11 -20 20 -29
20 -9 0 -27 8 -40 18 -13 10 -36 23 -51 30 -16 6 -28 16 -28 21 0 5 -16 12
-35 15 -19 4 -35 11 -35 17 0 5 -17 17 -37 26 -21 8 -42 21 -46 29 -4 8 -19
14 -32 14 -14 0 -25 5 -25 11 0 5 -17 17 -37 26 -21 8 -42 21 -46 29 -4 8 -17
14 -27 14 -11 0 -29 9 -40 20 -11 11 -26 20 -34 20 -8 0 -28 11 -44 25 -17 14
-37 25 -45 25 -9 0 -19 5 -23 11 -3 6 -22 17 -41 25 -18 8 -36 21 -40 29 -3 8
-13 15 -23 15 -28 0 -50 11 -50 25 0 7 -16 16 -36 19 -19 4 -38 14 -41 22 -3
7 -11 14 -18 14 -7 0 -23 8 -36 19 -13 10 -35 22 -49 26 -14 4 -31 16 -38 26
-7 11 -24 19 -37 19 -14 0 -30 9 -37 20 -7 11 -20 20 -29 20 -9 0 -27 8 -40
19 -13 10 -34 21 -46 25 -11 4 -24 13 -27 21 -3 8 -15 15 -26 15 -11 0 -29 9
-40 20 -11 11 -26 20 -34 20 -8 0 -28 11 -44 25 -17 14 -36 25 -44 25 -8 0
-24 9 -36 20 -12 11 -28 20 -36 20 -9 0 -20 9 -26 20 -6 11 -19 20 -30 20 -29
0 -50 11 -50 26 0 8 -10 14 -24 14 -14 0 -37 11 -52 25 -15 14 -35 25 -46 25
-10 0 -21 6 -24 14 -3 8 -17 17 -32 21 -15 4 -35 15 -45 26 -10 10 -26 19 -37
19 -11 0 -24 9 -30 20 -6 11 -20 20 -30 20 -11 0 -29 9 -40 20 -11 11 -26 20
-33 20 -7 0 -28 11 -47 25 -19 14 -40 25 -47 25 -8 0 -16 6 -19 14 -3 8 -20
18 -37 22 -18 4 -38 15 -45 25 -7 11 -21 19 -31 19 -10 0 -26 9 -36 20 -10 11
-26 20 -35 20 -9 0 -25 8 -34 19 -9 10 -30 21 -47 25 -17 3 -29 12 -29 21 0 9
-9 15 -24 15 -14 0 -37 11 -52 25 -15 14 -32 25 -39 25 -7 0 -24 9 -38 20 -14
11 -31 20 -39 20 -7 0 -21 9 -31 20 -9 11 -26 20 -36 20 -11 0 -26 8 -33 19
-7 10 -28 22 -46 25 -17 4 -32 14 -32 21 0 7 -13 16 -30 20 -16 4 -32 11 -36
16 -3 5 -21 16 -40 24 -19 8 -34 18 -34 24 0 5 -15 13 -32 17 -18 3 -39 15
-46 25 -7 11 -22 19 -33 19 -10 0 -27 9 -36 20 -10 11 -24 20 -31 20 -8 0 -26
8 -40 19 -15 10 -37 21 -49 25 -11 4 -24 13 -27 21 -3 8 -16 15 -29 15 -13 0
-32 7 -43 15 -10 8 -26 14 -34 14 -8 0 -24 -6 -34 -14z m2219 -2616 c62 -7
112 -19 131 -30 17 -11 39 -19 48 -19 9 0 24 -9 33 -20 10 -11 23 -20 29 -20
29 0 184 -154 184 -182 0 -8 8 -23 19 -32 10 -9 22 -31 25 -48 3 -18 14 -40
24 -51 16 -18 17 -146 17 -2272 0 -2065 -1 -2254 -16 -2271 -9 -11 -22 -36
-28 -56 -7 -20 -19 -42 -27 -48 -7 -7 -14 -18 -14 -26 0 -7 -9 -18 -20 -24
-11 -6 -20 -15 -20 -21 0 -5 -14 -22 -31 -37 -17 -15 -40 -37 -52 -50 -11 -12
-24 -22 -29 -22 -4 0 -17 -9 -28 -20 -11 -11 -27 -20 -35 -20 -8 0 -24 -9 -35
-20 -11 -11 -29 -20 -40 -20 -11 0 -37 -9 -57 -20 -21 -11 -54 -20 -73 -20
-19 0 -66 -7 -105 -15 -82 -18 -143 -19 -181 -5 -15 6 -64 13 -108 17 -45 3
-99 13 -121 24 -22 10 -56 20 -76 24 -21 3 -42 12 -48 19 -7 8 -27 17 -45 20
-19 4 -39 13 -45 20 -7 8 -24 17 -39 21 -15 4 -35 15 -45 26 -10 10 -24 19
-32 19 -8 0 -15 4 -15 10 0 5 -12 16 -27 24 -34 18 -108 88 -145 136 -14 19
-39 49 -55 67 -55 61 -73 85 -73 94 0 5 -7 9 -15 9 -8 0 -15 5 -15 11 0 7 -10
22 -22 34 -22 21 -30 31 -88 104 -14 17 -43 51 -65 76 -22 24 -51 58 -65 75
-14 17 -34 42 -45 55 -11 13 -29 35 -40 49 -11 14 -30 37 -42 51 -13 15 -23
30 -23 36 0 5 -7 9 -15 9 -8 0 -15 5 -15 11 0 7 -10 22 -22 34 -22 22 -32 33
-88 104 -14 17 -42 50 -62 72 -21 22 -38 44 -38 48 0 4 -10 17 -22 28 -13 11
-34 35 -48 53 -34 45 -65 81 -92 108 -12 12 -20 22 -16 22 4 0 -12 20 -35 44
-51 53 -119 133 -131 153 -4 9 -17 24 -27 34 -11 11 -19 23 -19 29 0 6 -7 10
-15 10 -8 0 -15 6 -15 13 0 7 -10 23 -22 34 -13 11 -34 35 -48 52 -14 18 -34
43 -45 56 -56 66 -65 77 -65 86 0 5 -7 9 -15 9 -8 0 -15 7 -15 15 0 8 -9 20
-20 27 -11 7 -20 18 -20 25 0 7 -6 16 -14 20 -8 4 -31 30 -52 57 -43 56 -49
64 -104 124 -22 24 -40 48 -40 52 0 5 -6 13 -14 17 -12 7 -57 58 -104 121 -9
12 -34 40 -54 62 -21 22 -38 44 -38 50 0 5 -6 13 -14 17 -8 4 -28 26 -46 48
-66 84 -76 97 -112 136 -21 22 -38 45 -38 49 0 5 -6 13 -14 17 -7 4 -39 40
-70 78 -31 39 -73 89 -93 113 -21 23 -47 53 -58 66 -11 13 -38 45 -60 71 -22
26 -44 54 -48 62 -5 7 -24 29 -43 48 -19 19 -34 39 -34 44 0 6 -9 15 -19 21
-11 5 -23 19 -26 30 -3 11 -13 20 -21 20 -8 0 -14 6 -14 13 0 7 -13 26 -30 42
-16 16 -30 34 -30 41 0 6 -9 14 -20 17 -19 5 -19 -9 -22 -1543 l-3 -1548 -22
-31 c-13 -16 -23 -39 -23 -51 0 -11 -9 -29 -20 -40 -11 -11 -20 -26 -20 -33 0
-7 -22 -37 -50 -67 -27 -30 -50 -58 -50 -62 0 -5 -7 -8 -15 -8 -8 0 -19 -9
-25 -19 -5 -11 -20 -23 -32 -27 -13 -3 -31 -15 -41 -25 -10 -11 -27 -19 -38
-19 -12 0 -32 -9 -46 -20 -14 -11 -39 -20 -56 -20 -17 0 -59 -7 -94 -16 -36
-9 -85 -14 -111 -11 -91 9 -213 37 -228 52 -9 8 -24 15 -35 15 -10 0 -28 9
-38 19 -10 10 -27 22 -38 25 -10 3 -43 30 -74 58 -49 47 -71 74 -104 127 -5 9
-18 27 -27 40 -10 13 -18 33 -18 44 0 11 -7 29 -17 39 -11 12 -19 49 -25 122
-5 58 -7 1065 -6 2238 l3 2133 23 40 c12 22 22 50 22 62 0 13 9 28 20 35 11 7
20 20 20 29 0 8 10 25 23 37 12 11 37 37 55 56 19 20 38 36 43 36 5 0 9 6 9
14 0 8 11 17 25 20 14 4 25 13 25 20 0 8 14 17 31 21 17 4 40 16 50 26 10 10
29 19 40 19 12 0 36 8 53 19 53 32 241 46 410 31 83 -7 150 -18 164 -26 12 -8
45 -19 73 -24 29 -6 57 -16 63 -24 6 -8 28 -17 49 -20 21 -4 41 -14 44 -22 3
-7 12 -14 21 -14 26 0 153 -91 222 -160 78 -78 140 -147 140 -157 0 -3 7 -13
15 -22 50 -52 94 -103 124 -142 39 -50 57 -71 89 -103 12 -13 22 -27 22 -30 0
-4 18 -25 40 -46 22 -21 40 -41 40 -44 0 -7 38 -53 68 -82 12 -12 22 -26 22
-32 0 -6 9 -16 20 -22 11 -6 20 -17 20 -25 0 -7 4 -15 9 -17 5 -1 46 -48 91
-103 46 -55 89 -104 96 -108 8 -4 14 -13 14 -18 0 -6 17 -28 38 -49 20 -22 47
-52 59 -67 12 -15 33 -42 47 -59 14 -18 26 -37 26 -43 0 -6 7 -11 15 -11 9 0
19 -8 22 -17 4 -10 23 -35 42 -55 35 -36 56 -60 103 -122 13 -17 33 -40 46
-52 12 -12 22 -25 22 -30 0 -5 9 -15 20 -22 11 -7 20 -16 20 -22 0 -5 15 -24
33 -42 17 -18 50 -57 71 -85 22 -29 45 -54 53 -57 7 -3 13 -12 13 -20 0 -9 9
-20 20 -26 11 -6 20 -15 20 -20 0 -4 17 -26 38 -48 20 -21 48 -54 62 -73 14
-18 35 -43 48 -55 12 -12 22 -26 22 -32 0 -6 9 -16 20 -22 11 -6 20 -15 20
-20 0 -4 17 -26 38 -48 20 -22 48 -55 62 -73 14 -18 35 -42 48 -54 12 -12 22
-26 22 -31 0 -5 9 -15 20 -22 11 -7 20 -19 20 -27 0 -8 7 -15 15 -15 8 0 15
-4 15 -9 0 -6 10 -21 23 -36 12 -14 33 -39 47 -57 14 -17 35 -41 48 -53 12
-12 22 -26 22 -31 0 -5 9 -15 20 -22 11 -7 20 -19 20 -27 0 -8 6 -15 14 -15 8
0 17 -8 20 -17 5 -16 61 -84 115 -139 12 -12 21 -26 21 -32 0 -6 9 -16 20 -22
11 -6 20 -15 20 -20 0 -5 19 -29 43 -53 56 -59 109 -124 124 -152 7 -12 19
-25 28 -29 8 -3 15 -10 15 -15 0 -5 17 -28 38 -50 73 -80 117 -132 130 -157 7
-13 19 -24 27 -24 8 0 16 -8 17 -17 2 -10 5 687 8 1548 5 1470 6 1568 22 1586
10 11 21 33 24 51 3 17 15 39 25 48 11 9 19 22 19 29 0 29 155 185 184 185 6
0 19 9 29 20 9 11 24 20 33 20 9 0 31 9 48 19 17 10 59 22 94 26 35 4 75 10
90 14 15 4 36 6 47 5 11 -2 65 -8 120 -15z"/>
<path d="M2783 9958 c-58 -26 -76 -39 -98 -74 -15 -24 -36 -51 -46 -60 -13
-12 -19 -31 -19 -59 0 -25 -6 -48 -15 -55 -12 -10 -15 -50 -17 -214 l-3 -201
-640 -5 c-744 -6 -702 0 -793 -100 -31 -34 -64 -78 -74 -96 -17 -33 -18 -192
-18 -4075 l0 -4041 36 -74 c19 -41 41 -74 49 -74 7 0 26 -11 42 -24 15 -13 46
-31 67 -40 35 -15 305 -16 3100 -16 2677 0 3065 2 3082 15 10 8 26 15 35 15
25 0 97 56 104 82 4 13 19 32 33 44 30 25 31 35 38 314 4 183 6 196 25 212 20
17 66 18 655 18 411 0 635 4 639 10 3 6 17 10 31 10 29 0 135 95 163 145 15
28 16 341 19 4082 2 3695 1 4056 -14 4095 -9 24 -18 56 -21 72 -4 22 -16 33
-49 47 -24 11 -46 24 -50 30 -3 6 -25 20 -48 30 -40 18 -131 19 -3091 18
l-3050 0 -72 -31z m6065 -300 c9 -9 12 -899 12 -3945 0 -3878 0 -3932 -19
-3943 -13 -6 -218 -10 -595 -10 -563 0 -576 0 -596 20 -19 19 -20 33 -20 415
0 385 1 396 21 416 19 19 31 20 188 18 93 -1 174 2 180 5 7 5 11 42 11 96 0
71 -3 89 -16 94 -9 3 -94 6 -189 6 -162 0 -175 1 -185 19 -6 12 -10 136 -10
334 0 290 1 315 18 330 15 14 48 17 198 19 l179 3 0 95 0 95 -185 3 c-160 2
-187 5 -197 19 -10 13 -13 96 -13 333 0 237 3 320 13 333 10 14 37 17 197 19
l185 3 3 98 3 97 -185 0 c-154 0 -187 3 -200 16 -14 13 -16 57 -16 330 0 198
4 322 10 335 10 18 23 19 188 19 97 0 183 4 190 8 9 6 12 34 10 103 l-3 94
-184 3 c-115 1 -189 7 -198 13 -18 16 -19 649 -1 667 8 8 65 12 188 12 96 0
181 4 188 8 9 6 12 34 10 103 l-3 94 -185 3 c-160 2 -187 5 -197 19 -16 21
-18 639 -3 663 7 12 45 16 197 20 l188 5 0 95 0 95 -188 5 c-152 4 -190 8
-197 20 -15 24 -13 642 3 663 10 14 37 17 197 19 l185 3 0 95 0 95 -181 3
c-154 2 -184 5 -195 19 -11 13 -15 98 -19 402 -5 378 -5 387 -28 433 -49 99
-140 166 -257 187 -41 8 -707 11 -2220 11 -1667 0 -2164 3 -2173 12 -15 15
-17 320 -2 349 11 19 54 19 2948 19 2272 0 2941 -3 2950 -12z m-1555 -703 c16
-7 17 -203 17 -3931 l0 -3924 -22 -22 -21 -21 -2931 7 c-1612 3 -2934 10
-2938 14 -5 5 -8 1777 -8 3938 0 3727 1 3930 18 3942 14 12 500 13 2942 9
1609 -2 2933 -8 2943 -12z"/>
<path d="M2052 7913 c-6 -15 -7 -75 -2 -175 0 -5 1003 -8 2230 -8 l2230 0 0
100 0 100 -2225 0 c-2109 0 -2225 -1 -2233 -17z"/>
<path d="M2058 7227 c-10 -10 -12 -36 -8 -103 l5 -89 2225 0 2225 0 0 100 0
100 -2217 3 c-1825 2 -2219 0 -2230 -11z"/>
<path d="M4056 6409 c-71 -8 -166 -30 -246 -56 -53 -18 -190 -74 -205 -83 -5
-4 -41 -24 -80 -45 -235 -128 -470 -378 -590 -630 -60 -126 -63 -134 -94 -245
-60 -212 -73 -392 -45 -592 34 -247 105 -438 238 -638 211 -317 539 -537 931
-625 155 -35 440 -35 600 -1 212 46 467 162 590 269 34 30 40 40 40 76 0 33
-6 47 -25 62 -41 31 -78 24 -160 -32 -138 -93 -288 -158 -470 -205 -104 -26
-452 -27 -550 0 -343 92 -579 242 -767 489 -72 95 -183 293 -183 326 0 6 -6
25 -14 43 -36 84 -76 307 -76 423 0 140 72 471 110 509 6 6 10 15 10 22 0 20
89 174 141 243 326 433 857 622 1379 491 143 -36 268 -93 412 -186 90 -59 130
-67 168 -36 17 13 23 30 24 61 1 38 -4 47 -34 73 -169 142 -446 256 -701 288
-95 11 -300 11 -403 -1z"/>
<path d="M5391 5704 c-43 -36 -50 -84 -20 -129 55 -81 177 -62 195 29 18 100
-96 166 -175 100z"/>
<path d="M5613 5273 c-70 -35 -75 -142 -8 -183 18 -11 42 -20 54 -20 54 0 111
57 111 111 0 35 -38 86 -72 98 -39 14 -46 13 -85 -6z"/>
<path d="M5220 5271 c-30 -8 -70 -65 -70 -98 0 -61 46 -102 112 -103 40 0 50
4 72 31 14 17 29 42 32 56 10 37 -23 93 -63 110 -35 14 -45 15 -83 4z"/>
<path d="M4133 5219 c-54 -25 -119 -92 -145 -149 -32 -70 -30 -189 5 -256 89
-175 320 -219 465 -89 72 64 97 122 97 220 0 96 -22 152 -83 213 -61 61 -118
82 -216 81 -57 0 -93 -6 -123 -20z"/>
<path d="M4840 5052 c-34 -15 -60 -40 -70 -68 -41 -108 93 -190 175 -108 19
19 25 36 25 67 0 51 -21 84 -66 103 -37 15 -42 16 -64 6z"/>
<path d="M5199 4787 c-18 -12 -39 -39 -47 -59 -13 -34 -13 -41 5 -74 39 -76
141 -81 184 -10 33 54 19 110 -37 147 -38 25 -64 24 -105 -4z"/>
<path d="M5598 4790 c-39 -30 -52 -71 -38 -114 17 -54 55 -79 109 -73 62 7 96
43 96 103 0 39 -5 50 -33 75 -39 35 -96 39 -134 9z"/>
<path d="M5384 4326 c-48 -48 -47 -92 1 -141 48 -47 102 -49 146 -6 24 25 29
38 29 79 0 44 -4 54 -31 76 -46 39 -101 36 -145 -8z"/>
<path d="M2063 2819 c-14 -4 -16 -20 -16 -93 1 -48 5 -92 10 -97 5 -5 913 -8
2229 -7 l2219 3 0 100 0 100 -2213 0 c-1217 0 -2220 -3 -2229 -6z"/>
<path d="M4275 1920 l-2210 -5 -3 -92 c-3 -89 -2 -93 20 -98 13 -3 1013 -4
2223 -3 l2200 3 3 96 c2 72 -1 98 -10 100 -7 2 -1007 2 -2223 -1z"/>
</g>
</svg>
